{
  "asset": {
    "version": "2.0",
    "generator": "THREE.GLTFExporter"
  },
  "scenes": [
    {
      "nodes": [
        0
      ]
    }
  ],
  "scene": 0,
  "nodes": [
    {
      "children": [
        11
      ],
      "matrix": [
        0.01,
        0,
        0,
        0,
        0,
        0.01,
        0,
        0,
        0,
        0,
        0.01,
        0,
        0,
        0,
        0,
        1
      ]
    },
    {
      "matrix": [
        -0.15170313860505322,
        5.892276458587724e-17,
        -0.2166545350153292,
        0,
        1.8578276311328423e-17,
        0.26448635088664096,
        5.892276458587674e-17,
        0,
        0.2166545350153292,
        1.8578276311328565e-17,
        -0.15170313860505322,
        0,
        2.6481181477721325,
        128.5252757497085,
        0.8256808761902654,
        0.9999999999999999
      ],
      "name": "Cube 2",
      "mesh": 0
    },
    {
      "matrix": [
        0.15946962685795993,
        0.00703765700253142,
        0.22606916635707802,
        0,
        0.009892362259481518,
        0.2761284960865648,
        -0.015574122818607606,
        0,
        -0.22596224853368557,
        0.017055307577311433,
        0.15886326574993462,
        0,
        10.914207459364764,
        107.93466898296694,
        12.127749569254087,
        0.9999999999999998
      ],
      "name": "Cube 3",
      "mesh": 1
    },
    {
      "matrix": [
        -0.22093846075224288,
        -0.06828000154459982,
        -0.12836303110644537,
        0,
        -0.061113126458076795,
        0.2554894290816635,
        -0.030714283442332155,
        0,
        0.13192578269725633,
        0.004002851724272988,
        -0.22919990149021618,
        0,
        -19.580224239837722,
        87.12318668116296,
        -8.638814888076482,
        0.9999999999999998
      ],
      "name": "Cube 4",
      "mesh": 2
    },
    {
      "matrix": [
        -0.26597666492823524,
        0.071796860325675,
        0.02624848652247913,
        0,
        0.07166373272421243,
        0.2672602635366676,
        -0.004859982511429414,
        0,
        -0.026609802881198085,
        0.002126232667397967,
        -0.2754537275277915,
        0,
        15.171795547263674,
        96.23408933718271,
        10.613383909446508,
        1
      ],
      "name": "Cube 5",
      "mesh": 3
    },
    {
      "matrix": [
        0.256511111556708,
        -0.04592757284924206,
        -0.045229829818965936,
        0,
        0.045229829818966005,
        0.2604682089190709,
        -0.007975239329935895,
        0,
        0.045927572849241434,
        3.121566620204831e-17,
        0.2604682089190744,
        0,
        16.384039457070205,
        93.33586184887417,
        -11.495167031268977,
        0.9999999999999999
      ],
      "name": "Cube",
      "mesh": 4
    },
    {
      "matrix": [
        0.4959074702928725,
        1.5818153623273985e-16,
        -0.1804955581368567,
        0,
        -0.1804955581368605,
        5.861727756778448e-16,
        -0.4959074702928827,
        0,
        -2.7088285334997922e-17,
        0.527733707090444,
        6.3145639246706e-16,
        0,
        -0.6311849328182788,
        84.83106627535386,
        -7.674532767019851,
        0.9999999999999999
      ],
      "name": "Ellipse 3",
      "mesh": 5
    },
    {
      "matrix": [
        0.4275423976508429,
        -8.262278772024536e-16,
        -0.15561270663171115,
        0,
        -0.1560289102010088,
        8.421294307551529e-17,
        -0.4286859075593846,
        0,
        7.470602702481581e-16,
        0.4561980141983601,
        -2.1616374760020361e-16,
        0,
        2.2259059232847314,
        30.136443283196996,
        -1.8018103951695785,
        0.9999999999999998
      ],
      "name": "Plant Base",
      "mesh": 6
    },
    {
      "name": "Plant_01",
      "children": [
        1,
        2,
        3,
        4,
        5,
        6,
        7
      ]
    },
    {
      "matrix": [
        0.9426541463674044,
        -2.6336971034601753e-8,
        0.3337711196858401,
        0,
        0.20445443187823742,
        0.7904250791298013,
        -0.577431017150962,
        0,
        -0.2638210484811386,
        0.6125587272112338,
        0.7450974836192014,
        0,
        -141.0782448635432,
        669.7976397997302,
        763.5118076477655,
        1
      ],
      "camera": 0
    },
    {
      "matrix": [
        1,
        0,
        0,
        0,
        0,
        1,
        0,
        0,
        0,
        0,
        1,
        0,
        0,
        1,
        0,
        1
      ],
      "name": "Default Ambient Light"
    },
    {
      "name": "Scene 1",
      "children": [
        8,
        9,
        10
      ]
    }
  ],
  "bufferViews": [
    {
      "buffer": 0,
      "byteOffset": 0,
      "byteLength": 16896,
      "target": 34962,
      "byteStride": 12
    },
    {
      "buffer": 0,
      "byteOffset": 16896,
      "byteLength": 16896,
      "target": 34962,
      "byteStride": 12
    },
    {
      "buffer": 0,
      "byteOffset": 33792,
      "byteLength": 8448,
      "target": 34963
    },
    {
      "buffer": 0,
      "byteOffset": 42240,
      "byteLength": 16896,
      "target": 34962,
      "byteStride": 12
    },
    {
      "buffer": 0,
      "byteOffset": 59136,
      "byteLength": 16896,
      "target": 34962,
      "byteStride": 12
    },
    {
      "buffer": 0,
      "byteOffset": 76032,
      "byteLength": 8448,
      "target": 34963
    },
    {
      "buffer": 0,
      "byteOffset": 84480,
      "byteLength": 16896,
      "target": 34962,
      "byteStride": 12
    },
    {
      "buffer": 0,
      "byteOffset": 101376,
      "byteLength": 16896,
      "target": 34962,
      "byteStride": 12
    },
    {
      "buffer": 0,
      "byteOffset": 118272,
      "byteLength": 8448,
      "target": 34963
    },
    {
      "buffer": 0,
      "byteOffset": 126720,
      "byteLength": 16896,
      "target": 34962,
      "byteStride": 12
    },
    {
      "buffer": 0,
      "byteOffset": 143616,
      "byteLength": 16896,
      "target": 34962,
      "byteStride": 12
    },
    {
      "buffer": 0,
      "byteOffset": 160512,
      "byteLength": 8448,
      "target": 34963
    },
    {
      "buffer": 0,
      "byteOffset": 168960,
      "byteLength": 16896,
      "target": 34962,
      "byteStride": 12
    },
    {
      "buffer": 0,
      "byteOffset": 185856,
      "byteLength": 16896,
      "target": 34962,
      "byteStride": 12
    },
    {
      "buffer": 0,
      "byteOffset": 202752,
      "byteLength": 8448,
      "target": 34963
    },
    {
      "buffer": 0,
      "byteOffset": 211200,
      "byteLength": 144,
      "target": 34962,
      "byteStride": 12
    },
    {
      "buffer": 0,
      "byteOffset": 211344,
      "byteLength": 144,
      "target": 34962,
      "byteStride": 12
    },
    {
      "buffer": 0,
      "byteOffset": 211488,
      "byteLength": 96,
      "target": 34962,
      "byteStride": 8
    },
    {
      "buffer": 0,
      "byteOffset": 211584,
      "byteLength": 120,
      "target": 34963
    },
    {
      "buffer": 0,
      "byteOffset": 211704,
      "byteLength": 23040,
      "target": 34962,
      "byteStride": 12
    },
    {
      "buffer": 0,
      "byteOffset": 234744,
      "byteLength": 23040,
      "target": 34962,
      "byteStride": 12
    },
    {
      "buffer": 0,
      "byteOffset": 257784,
      "byteLength": 11520,
      "target": 34963
    }
  ],
  "buffers": [
    {
      "byteLength": 269304,
      "uri": "data:application/octet-stream;base64,"
    }
  ],
  "accessors": [
    {
      "bufferView": 0,
      "componentType": 5126,
      "count": 1408,
      "max": [
        207.84408569335938,
        368.5557861328125,
        66.19004821777344
      ],
      "min": [
        -5.776070594787598,
        -416.86712646484375,
        -66.19004821777344
      ],
      "type": "VEC3"
    },
    {
      "bufferView": 1,
      "componentType": 5126,
      "count": 1408,
      "max": [
        0.9976575374603271,
        0.9432265758514404,
        0.9991694092750549
      ],
      "min": [
        -0.9998897314071655,
        -0.9999231100082397,
        -0.9991693496704102
      ],
      "type": "VEC3"
    },
    {
      "bufferView": 2,
      "componentType": 5125,
      "count": 2112,
      "max": [
        1407
      ],
      "min": [
        0
      ],
      "type": "SCALAR"
    },
    {
      "bufferView": 3,
      "componentType": 5126,
      "count": 1408,
      "max": [
        159.99227905273438,
        300.2785949707031,
        55.004493713378906
      ],
      "min": [
        -4.435519218444824,
        -332.8715515136719,
        -55.004493713378906
      ],
      "type": "VEC3"
    },
    {
      "bufferView": 4,
      "componentType": 5126,
      "count": 1408,
      "max": [
        0.9998120665550232,
        0.9513747692108154,
        0.9991492629051208
      ],
      "min": [
        -0.9999945163726807,
        -0.9999538660049438,
        -0.9991492629051208
      ],
      "type": "VEC3"
    },
    {
      "bufferView": 5,
      "componentType": 5125,
      "count": 2112,
      "max": [
        1407
      ],
      "min": [
        0
      ],
      "type": "SCALAR"
    },
    {
      "bufferView": 6,
      "componentType": 5126,
      "count": 1408,
      "max": [
        155.81227111816406,
        273.84783935546875,
        60.16273498535156
      ],
      "min": [
        -12.79932689666748,
        -309.156005859375,
        -60.16273498535156
      ],
      "type": "VEC3"
    },
    {
      "bufferView": 7,
      "componentType": 5126,
      "count": 1408,
      "max": [
        0.9998002052307129,
        0.8507769703865051,
        0.9987712502479553
      ],
      "min": [
        -0.9998976588249207,
        -0.9864304065704346,
        -0.9987712502479553
      ],
      "type": "VEC3"
    },
    {
      "bufferView": 8,
      "componentType": 5125,
      "count": 2112,
      "max": [
        1407
      ],
      "min": [
        0
      ],
      "type": "SCALAR"
    },
    {
      "bufferView": 9,
      "componentType": 5126,
      "count": 1408,
      "max": [
        202.14596557617188,
        275.657470703125,
        45.61772537231445
      ],
      "min": [
        -16.199840545654297,
        -273.1096496582031,
        -45.61772537231445
      ],
      "type": "VEC3"
    },
    {
      "bufferView": 10,
      "componentType": 5126,
      "count": 1408,
      "max": [
        0.9826065301895142,
        0.8883891701698303,
        0.998749852180481
      ],
      "min": [
        -0.9999353885650635,
        -0.9953113794326782,
        -0.998749852180481
      ],
      "type": "VEC3"
    },
    {
      "bufferView": 11,
      "componentType": 5125,
      "count": 2112,
      "max": [
        1407
      ],
      "min": [
        0
      ],
      "type": "SCALAR"
    },
    {
      "bufferView": 12,
      "componentType": 5126,
      "count": 1408,
      "max": [
        195.09628295898438,
        257.0013427734375,
        44.54679870605469
      ],
      "min": [
        -3.9829695224761963,
        -311.0948486328125,
        -44.54679870605469
      ],
      "type": "VEC3"
    },
    {
      "bufferView": 13,
      "componentType": 5126,
      "count": 1408,
      "max": [
        0.9971356987953186,
        0.845809280872345,
        0.9990295171737671
      ],
      "min": [
        -0.9999759197235107,
        -0.9999538660049438,
        -0.9990295171737671
      ],
      "type": "VEC3"
    },
    {
      "bufferView": 14,
      "componentType": 5125,
      "count": 2112,
      "max": [
        1407
      ],
      "min": [
        0
      ],
      "type": "SCALAR"
    },
    {
      "bufferView": 15,
      "componentType": 5126,
      "count": 12,
      "max": [
        72.03072357177734,
        72.03072357177734,
        0
      ],
      "min": [
        -72.03072357177734,
        -72.03072357177734,
        0
      ],
      "type": "VEC3"
    },
    {
      "bufferView": 16,
      "componentType": 5126,
      "count": 12,
      "max": [
        0,
        0,
        1
      ],
      "min": [
        0,
        0,
        1
      ],
      "type": "VEC3"
    },
    {
      "bufferView": 17,
      "componentType": 5126,
      "count": 12,
      "max": [
        1,
        1
      ],
      "min": [
        0,
        0
      ],
      "type": "VEC2"
    },
    {
      "bufferView": 18,
      "componentType": 5125,
      "count": 30,
      "max": [
        11
      ],
      "min": [
        0
      ],
      "type": "SCALAR"
    },
    {
      "bufferView": 19,
      "componentType": 5126,
      "count": 1920,
      "max": [
        94.03857421875,
        94.03857421875,
        134.62290954589844
      ],
      "min": [
        -94.03857421875,
        -94.03857421875,
        -65.98123168945312
      ],
      "type": "VEC3"
    },
    {
      "bufferView": 20,
      "componentType": 5126,
      "count": 1920,
      "max": [
        0.9989585280418396,
        0.9989585280418396,
        1
      ],
      "min": [
        -0.9989585280418396,
        -0.9989585280418396,
        -1
      ],
      "type": "VEC3"
    },
    {
      "bufferView": 21,
      "componentType": 5125,
      "count": 2880,
      "max": [
        1919
      ],
      "min": [
        0
      ],
      "type": "SCALAR"
    }
  ],
  "materials": [
    {
      "pbrMetallicRoughness": {
        "baseColorFactor": [
          0.1279317831400657,
          0.24228112245478564,
          0.05612849004241121,
          1
        ],
        "metallicFactor": 0,
        "roughnessFactor": 0.32
      },
      "doubleSided": false
    },
    {
      "pbrMetallicRoughness": {
        "baseColorFactor": [
          0.13073228427961264,
          0.040154562022007574,
          0.040154562022007574,
          1
        ],
        "metallicFactor": 0,
        "roughnessFactor": 0.9311916952782688
      },
      "doubleSided": false
    },
    {
      "pbrMetallicRoughness": {
        "baseColorFactor": [
          0.5209955731953768,
          0.19806931954941637,
          0.23074004851362043,
          1
        ],
        "metallicFactor": 0,
        "roughnessFactor": 0.99
      },
      "doubleSided": false
    }
  ],
  "meshes": [
    {
      "primitives": [
        {
          "mode": 4,
          "attributes": {
            "POSITION": 0,
            "NORMAL": 1
          },
          "extras": {
            "type": "SubdivGeometry",
            "parameters": {
              "width": 265.2386016845703,
              "height": 848.670166015625,
              "depth": 160.2184600830078
            }
          },
          "indices": 2,
          "material": 0
        }
      ]
    },
    {
      "primitives": [
        {
          "mode": 4,
          "attributes": {
            "POSITION": 3,
            "NORMAL": 4
          },
          "extras": {
            "type": "SubdivGeometry",
            "parameters": {
              "width": 200.00754833221436,
              "height": 682.8326721191406,
              "depth": 128.99583435058594
            }
          },
          "indices": 5,
          "material": 0
        }
      ]
    },
    {
      "primitives": [
        {
          "mode": 4,
          "attributes": {
            "POSITION": 6,
            "NORMAL": 7
          },
          "extras": {
            "type": "SubdivGeometry",
            "parameters": {
              "width": 217.82329940795898,
              "height": 628.391845703125,
              "depth": 146.85252380371094
            }
          },
          "indices": 8,
          "material": 0
        }
      ]
    },
    {
      "primitives": [
        {
          "mode": 4,
          "attributes": {
            "POSITION": 9,
            "NORMAL": 10
          },
          "extras": {
            "type": "SubdivGeometry",
            "parameters": {
              "width": 257.14194679260254,
              "height": 589.5306091308594,
              "depth": 106.8941879272461
            }
          },
          "indices": 11,
          "material": 0
        }
      ]
    },
    {
      "primitives": [
        {
          "mode": 4,
          "attributes": {
            "POSITION": 12,
            "NORMAL": 13
          },
          "extras": {
            "type": "SubdivGeometry",
            "parameters": {
              "width": 240.36364269256592,
              "height": 612.4764099121094,
              "depth": 99.53128051757812
            }
          },
          "indices": 14,
          "material": 0
        }
      ]
    },
    {
      "primitives": [
        {
          "mode": 4,
          "attributes": {
            "POSITION": 15,
            "NORMAL": 16,
            "TEXCOORD_0": 17
          },
          "extras": {
            "shape": {
              "points": [
                -72.03072096132827,
                0,
                -72.03072096132827,
                -39.7814687040408,
                -72.03072096132827,
                39.7814687040408,
                0,
                0,
                72.03072096132827,
                -39.7814687040408,
                72.03072096132827,
                39.7814687040408,
                72.03072096132827,
                0,
                72.03072096132827,
                0,
                72.03072096132827,
                39.7814687040408,
                72.03072096132827,
                -39.7814687040408,
                0,
                0,
                -72.03072096132827,
                39.7814687040408,
                -72.03072096132827,
                -39.7814687040408,
                -72.03072096132827,
                0
              ],
              "shapeHoles": [],
              "isClosed": true,
              "roundness": 0
            },
            "parameters": {
              "width": 144.06144192265654,
              "depth": 0,
              "spikes": 12,
              "angle": 360,
              "innerRadius": 0,
              "extrudeBevelSize": 0,
              "extrudeBevelSegments": 1,
              "extrudeDepth": 0,
              "surfaceMaxCount": 1000,
              "height": 144.06144192265654,
              "type": "EllipseGeometry"
            },
            "type": "EllipseGeometry"
          },
          "indices": 18,
          "material": 1
        }
      ]
    },
    {
      "primitives": [
        {
          "mode": 4,
          "attributes": {
            "POSITION": 19,
            "NORMAL": 20
          },
          "extras": {
            "type": "SubdivGeometry",
            "parameters": {
              "width": 201.82545471191406,
              "height": 201.82545471191406,
              "depth": 201.170654296875
            }
          },
          "indices": 21,
          "material": 2
        }
      ]
    }
  ],
  "cameras": [
    {
      "type": "orthographic",
      "orthographic": {
        "xmag": 9.775,
        "ymag": 5.79,
        "zfar": 100000,
        "znear": 0
      }
    }
  ]
}