{
  "asset": {
    "version": "2.0",
    "generator": "THREE.GLTFExporter"
  },
  "scenes": [
    {
      "nodes": [
        0
      ]
    }
  ],
  "scene": 0,
  "nodes": [
    {
      "children": [
        11
      ],
      "matrix": [
        0.01,
        0,
        0,
        0,
        0,
        0.01,
        0,
        0,
        0,
        0,
        0.01,
        0,
        0,
        0,
        0,
        1
      ]
    },
    {
      "matrix": [
        4.9029018701325023e-17,
        -2.7041067193767552e-17,
        0.22080707035362845,
        0,
        0,
        -14.831660025827277,
        -1.8163544976671127e-15,
        0,
        0.22080707035362845,
        5.443314543698843e-33,
        -4.9029018701325023e-17,
        0,
        -83.86110864094366,
        -7.0064923216240846e-46,
        -7.438494264988546e-15,
        1
      ],
      "name": "Cylinder 5",
      "mesh": 0
    },
    {
      "matrix": [
        -0.22080707035362845,
        -2.7041067193767552e-17,
        0,
        0,
        1.8163544976671127e-15,
        -14.831660025827277,
        0,
        0,
        0,
        0,
        0.22080707035362845,
        0,
        3.5055395770573136e-15,
        0,
        -83.86110864094364,
        1
      ],
      "name": "Cylinder 3",
      "mesh": 1
    },
    {
      "matrix": [
        4.9029018701325023e-17,
        -2.7041067193767552e-17,
        0.22080707035362845,
        0,
        0,
        -14.831660025827277,
        -1.8163544976671127e-15,
        0,
        0.22080707035362845,
        5.443314543698843e-33,
        -4.9029018701325023e-17,
        0,
        83.86110864094366,
        -7.006492321624087e-46,
        2.97539770599542e-14,
        1
      ],
      "name": "Cylinder 5",
      "mesh": 2
    },
    {
      "matrix": [
        -0.22080707035362845,
        -2.7041067193767552e-17,
        0,
        0,
        1.8163544976671127e-15,
        -14.831660025827277,
        0,
        0,
        0,
        0,
        0.22080707035362845,
        0,
        3.5055395770573136e-15,
        0,
        83.86110864094366,
        1
      ],
      "name": "Cylinder 2",
      "mesh": 3
    },
    {
      "matrix": [
        1,
        0,
        0,
        0,
        0,
        1,
        0,
        0,
        0,
        0,
        1,
        0,
        0,
        112.14481673266656,
        -0.7247224890230228,
        1
      ],
      "name": "legs",
      "children": [
        1,
        2,
        3,
        4
      ]
    },
    {
      "matrix": [
        1.0352786834432304,
        0,
        0,
        0,
        0,
        0.5803789153723843,
        0,
        0,
        0,
        0,
        1.0352786834432304,
        0,
        0,
        85.4776325417961,
        0,
        1
      ],
      "name": "basetable",
      "mesh": 4
    },
    {
      "matrix": [
        1.6488786992328897,
        0,
        0,
        0,
        0,
        1.6488786992328897,
        0,
        0,
        0,
        0,
        1.6488786992328897,
        0,
        0,
        236.69490987924118,
        0,
        1
      ],
      "name": "table",
      "mesh": 5
    },
    {
      "name": "Circular Little Table",
      "children": [
        5,
        6,
        7
      ]
    },
    {
      "matrix": [
        0.9426541463674044,
        -2.6336971062357328e-8,
        0.33377111968584006,
        0,
        0.20445443187823736,
        0.7904250791298013,
        -0.5774310171509619,
        0,
        -0.2638210484811385,
        0.6125587272112337,
        0.7450974836192015,
        0,
        -141.0782448635432,
        669.7976397997302,
        763.5118076477652,
        1
      ],
      "camera": 0
    },
    {
      "matrix": [
        1,
        0,
        0,
        0,
        0,
        1,
        0,
        0,
        0,
        0,
        1,
        0,
        0,
        1,
        0,
        1
      ],
      "name": "Default Ambient Light"
    },
    {
      "name": "Scene 1",
      "children": [
        8,
        9,
        10
      ]
    }
  ],
  "bufferViews": [
    {
      "buffer": 0,
      "byteOffset": 0,
      "byteLength": 624,
      "target": 34962,
      "byteStride": 12
    },
    {
      "buffer": 0,
      "byteOffset": 624,
      "byteLength": 624,
      "target": 34962,
      "byteStride": 12
    },
    {
      "buffer": 0,
      "byteOffset": 1248,
      "byteLength": 416,
      "target": 34962,
      "byteStride": 8
    },
    {
      "buffer": 0,
      "byteOffset": 1664,
      "byteLength": 192,
      "target": 34963
    },
    {
      "buffer": 0,
      "byteOffset": 1856,
      "byteLength": 624,
      "target": 34962,
      "byteStride": 12
    },
    {
      "buffer": 0,
      "byteOffset": 2480,
      "byteLength": 624,
      "target": 34962,
      "byteStride": 12
    },
    {
      "buffer": 0,
      "byteOffset": 3104,
      "byteLength": 416,
      "target": 34962,
      "byteStride": 8
    },
    {
      "buffer": 0,
      "byteOffset": 3520,
      "byteLength": 192,
      "target": 34963
    },
    {
      "buffer": 0,
      "byteOffset": 3712,
      "byteLength": 624,
      "target": 34962,
      "byteStride": 12
    },
    {
      "buffer": 0,
      "byteOffset": 4336,
      "byteLength": 624,
      "target": 34962,
      "byteStride": 12
    },
    {
      "buffer": 0,
      "byteOffset": 4960,
      "byteLength": 416,
      "target": 34962,
      "byteStride": 8
    },
    {
      "buffer": 0,
      "byteOffset": 5376,
      "byteLength": 192,
      "target": 34963
    },
    {
      "buffer": 0,
      "byteOffset": 5568,
      "byteLength": 624,
      "target": 34962,
      "byteStride": 12
    },
    {
      "buffer": 0,
      "byteOffset": 6192,
      "byteLength": 624,
      "target": 34962,
      "byteStride": 12
    },
    {
      "buffer": 0,
      "byteOffset": 6816,
      "byteLength": 416,
      "target": 34962,
      "byteStride": 8
    },
    {
      "buffer": 0,
      "byteOffset": 7232,
      "byteLength": 192,
      "target": 34963
    },
    {
      "buffer": 0,
      "byteOffset": 7424,
      "byteLength": 1344,
      "target": 34962,
      "byteStride": 12
    },
    {
      "buffer": 0,
      "byteOffset": 8768,
      "byteLength": 1344,
      "target": 34962,
      "byteStride": 12
    },
    {
      "buffer": 0,
      "byteOffset": 10112,
      "byteLength": 896,
      "target": 34962,
      "byteStride": 8
    },
    {
      "buffer": 0,
      "byteOffset": 11008,
      "byteLength": 432,
      "target": 34963
    },
    {
      "buffer": 0,
      "byteOffset": 11440,
      "byteLength": 3240,
      "target": 34962,
      "byteStride": 12
    },
    {
      "buffer": 0,
      "byteOffset": 14680,
      "byteLength": 3240,
      "target": 34962,
      "byteStride": 12
    },
    {
      "buffer": 0,
      "byteOffset": 17920,
      "byteLength": 2160,
      "target": 34962,
      "byteStride": 8
    },
    {
      "buffer": 0,
      "byteOffset": 20080,
      "byteLength": 2652,
      "target": 34963
    }
  ],
  "buffers": [
    {
      "byteLength": 22732,
      "uri": "data:application/octet-stream;base64,"
    }
  ],
  "accessors": [
    {
      "bufferView": 0,
      "componentType": 5126,
      "count": 52,
      "max": [
        73,
        7.563786029815674,
        73
      ],
      "min": [
        -73,
        -7.563786029815674,
        -73
      ],
      "type": "VEC3"
    },
    {
      "bufferView": 1,
      "componentType": 5126,
      "count": 52,
      "max": [
        0.3616343140602112,
        1,
        0.3616343140602112
      ],
      "min": [
        -0.3616343140602112,
        -1,
        -0.3616343140602112
      ],
      "type": "VEC3"
    },
    {
      "bufferView": 2,
      "componentType": 5126,
      "count": 52,
      "max": [
        1,
        1
      ],
      "min": [
        0,
        0
      ],
      "type": "VEC2"
    },
    {
      "bufferView": 3,
      "componentType": 5123,
      "count": 96,
      "max": [
        51
      ],
      "min": [
        0
      ],
      "type": "SCALAR"
    },
    {
      "bufferView": 4,
      "componentType": 5126,
      "count": 52,
      "max": [
        73,
        7.563786029815674,
        73
      ],
      "min": [
        -73,
        -7.563786029815674,
        -73
      ],
      "type": "VEC3"
    },
    {
      "bufferView": 5,
      "componentType": 5126,
      "count": 52,
      "max": [
        0.3616343140602112,
        1,
        0.3616343140602112
      ],
      "min": [
        -0.3616343140602112,
        -1,
        -0.3616343140602112
      ],
      "type": "VEC3"
    },
    {
      "bufferView": 6,
      "componentType": 5126,
      "count": 52,
      "max": [
        1,
        1
      ],
      "min": [
        0,
        0
      ],
      "type": "VEC2"
    },
    {
      "bufferView": 7,
      "componentType": 5123,
      "count": 96,
      "max": [
        51
      ],
      "min": [
        0
      ],
      "type": "SCALAR"
    },
    {
      "bufferView": 8,
      "componentType": 5126,
      "count": 52,
      "max": [
        73,
        7.563786029815674,
        73
      ],
      "min": [
        -73,
        -7.563786029815674,
        -73
      ],
      "type": "VEC3"
    },
    {
      "bufferView": 9,
      "componentType": 5126,
      "count": 52,
      "max": [
        0.3616343140602112,
        1,
        0.3616343140602112
      ],
      "min": [
        -0.3616343140602112,
        -1,
        -0.3616343140602112
      ],
      "type": "VEC3"
    },
    {
      "bufferView": 10,
      "componentType": 5126,
      "count": 52,
      "max": [
        1,
        1
      ],
      "min": [
        0,
        0
      ],
      "type": "VEC2"
    },
    {
      "bufferView": 11,
      "componentType": 5123,
      "count": 96,
      "max": [
        51
      ],
      "min": [
        0
      ],
      "type": "SCALAR"
    },
    {
      "bufferView": 12,
      "componentType": 5126,
      "count": 52,
      "max": [
        73,
        7.563786029815674,
        73
      ],
      "min": [
        -73,
        -7.563786029815674,
        -73
      ],
      "type": "VEC3"
    },
    {
      "bufferView": 13,
      "componentType": 5126,
      "count": 52,
      "max": [
        0.3616343140602112,
        1,
        0.3616343140602112
      ],
      "min": [
        -0.3616343140602112,
        -1,
        -0.3616343140602112
      ],
      "type": "VEC3"
    },
    {
      "bufferView": 14,
      "componentType": 5126,
      "count": 52,
      "max": [
        1,
        1
      ],
      "min": [
        0,
        0
      ],
      "type": "VEC2"
    },
    {
      "bufferView": 15,
      "componentType": 5123,
      "count": 96,
      "max": [
        51
      ],
      "min": [
        0
      ],
      "type": "SCALAR"
    },
    {
      "bufferView": 16,
      "componentType": 5126,
      "count": 112,
      "max": [
        71.8909683227539,
        7.5,
        73
      ],
      "min": [
        -71.8909683227539,
        -7.5,
        -73
      ],
      "type": "VEC3"
    },
    {
      "bufferView": 17,
      "componentType": 5126,
      "count": 112,
      "max": [
        0.9848077297210693,
        1,
        1
      ],
      "min": [
        -0.9848077297210693,
        -1,
        -1
      ],
      "type": "VEC3"
    },
    {
      "bufferView": 18,
      "componentType": 5126,
      "count": 112,
      "max": [
        1,
        1
      ],
      "min": [
        0,
        0
      ],
      "type": "VEC2"
    },
    {
      "bufferView": 19,
      "componentType": 5123,
      "count": 216,
      "max": [
        111
      ],
      "min": [
        0
      ],
      "type": "SCALAR"
    },
    {
      "bufferView": 20,
      "componentType": 5126,
      "count": 270,
      "max": [
        72.4677505493164,
        7.5,
        73
      ],
      "min": [
        -72.4677505493164,
        -7.5,
        -73
      ],
      "type": "VEC3"
    },
    {
      "bufferView": 21,
      "componentType": 5126,
      "count": 270,
      "max": [
        0.9927088618278503,
        1,
        1
      ],
      "min": [
        -0.9927088618278503,
        -1,
        -1
      ],
      "type": "VEC3"
    },
    {
      "bufferView": 22,
      "componentType": 5126,
      "count": 270,
      "max": [
        1,
        1
      ],
      "min": [
        0,
        0
      ],
      "type": "VEC2"
    },
    {
      "bufferView": 23,
      "componentType": 5123,
      "count": 1326,
      "max": [
        268
      ],
      "min": [
        0
      ],
      "type": "SCALAR"
    }
  ],
  "materials": [
    {
      "pbrMetallicRoughness": {
        "baseColorFactor": [
          0.3962359275495583,
          0.19351387538881454,
          0.10270590659116266,
          1
        ],
        "metallicFactor": 0,
        "roughnessFactor": 0.995
      },
      "doubleSided": false
    }
  ],
  "meshes": [
    {
      "primitives": [
        {
          "mode": 4,
          "attributes": {
            "POSITION": 0,
            "NORMAL": 1,
            "TEXCOORD_0": 2
          },
          "extras": {
            "parameters": {
              "width": 146,
              "radialSegments": 8,
              "heightSegments": 1,
              "openEnded": false,
              "thetaStart": 0,
              "thetaLength": 360,
              "cornerRadius": 0,
              "cornerSegments": 8,
              "hollow": 0,
              "height": 15.127572360072605,
              "depth": 146,
              "radiusTop": 34,
              "radiusBottom": 73,
              "type": "CylinderGeometry"
            },
            "type": "CylinderGeometry"
          },
          "indices": 3,
          "material": 0
        }
      ]
    },
    {
      "primitives": [
        {
          "mode": 4,
          "attributes": {
            "POSITION": 4,
            "NORMAL": 5,
            "TEXCOORD_0": 6
          },
          "extras": {
            "parameters": {
              "width": 146,
              "radialSegments": 8,
              "heightSegments": 1,
              "openEnded": false,
              "thetaStart": 0,
              "thetaLength": 360,
              "cornerRadius": 0,
              "cornerSegments": 8,
              "hollow": 0,
              "height": 15.127572360072605,
              "depth": 146,
              "radiusTop": 34,
              "radiusBottom": 73,
              "type": "CylinderGeometry"
            },
            "type": "CylinderGeometry"
          },
          "indices": 7,
          "material": 0
        }
      ]
    },
    {
      "primitives": [
        {
          "mode": 4,
          "attributes": {
            "POSITION": 8,
            "NORMAL": 9,
            "TEXCOORD_0": 10
          },
          "extras": {
            "parameters": {
              "width": 146,
              "radialSegments": 8,
              "heightSegments": 1,
              "openEnded": false,
              "thetaStart": 0,
              "thetaLength": 360,
              "cornerRadius": 0,
              "cornerSegments": 8,
              "hollow": 0,
              "height": 15.127572360072605,
              "depth": 146,
              "radiusTop": 34,
              "radiusBottom": 73,
              "type": "CylinderGeometry"
            },
            "type": "CylinderGeometry"
          },
          "indices": 11,
          "material": 0
        }
      ]
    },
    {
      "primitives": [
        {
          "mode": 4,
          "attributes": {
            "POSITION": 12,
            "NORMAL": 13,
            "TEXCOORD_0": 14
          },
          "extras": {
            "parameters": {
              "width": 146,
              "radialSegments": 8,
              "heightSegments": 1,
              "openEnded": false,
              "thetaStart": 0,
              "thetaLength": 360,
              "cornerRadius": 0,
              "cornerSegments": 8,
              "hollow": 0,
              "height": 15.127572360072605,
              "depth": 146,
              "radiusTop": 34,
              "radiusBottom": 73,
              "type": "CylinderGeometry"
            },
            "type": "CylinderGeometry"
          },
          "indices": 15,
          "material": 0
        }
      ]
    },
    {
      "primitives": [
        {
          "mode": 4,
          "attributes": {
            "POSITION": 16,
            "NORMAL": 17,
            "TEXCOORD_0": 18
          },
          "extras": {
            "parameters": {
              "width": 146,
              "radialSegments": 18,
              "heightSegments": 1,
              "openEnded": false,
              "thetaStart": 0,
              "thetaLength": 360,
              "cornerRadius": 0,
              "cornerSegments": 8,
              "hollow": 0,
              "height": 15,
              "depth": 146,
              "radiusTop": 73,
              "radiusBottom": 73,
              "type": "CylinderGeometry"
            },
            "type": "CylinderGeometry"
          },
          "indices": 19,
          "material": 0
        }
      ]
    },
    {
      "primitives": [
        {
          "mode": 4,
          "attributes": {
            "POSITION": 20,
            "NORMAL": 21,
            "TEXCOORD_0": 22
          },
          "extras": {
            "parameters": {
              "width": 146,
              "radialSegments": 26,
              "heightSegments": 1,
              "openEnded": false,
              "thetaStart": 0,
              "thetaLength": 360,
              "cornerRadius": 2,
              "cornerSegments": 1,
              "hollow": 0,
              "height": 15,
              "depth": 146,
              "radiusTop": 73,
              "radiusBottom": 73,
              "type": "CylinderGeometry"
            },
            "type": "CylinderGeometry"
          },
          "indices": 23,
          "material": 0
        }
      ]
    }
  ],
  "cameras": [
    {
      "type": "orthographic",
      "orthographic": {
        "xmag": 9.775,
        "ymag": 5.79,
        "zfar": 100000,
        "znear": 0
      }
    }
  ]
}