{
  "asset": {
    "version": "2.0",
    "generator": "THREE.GLTFExporter"
  },
  "scenes": [
    {
      "nodes": [
        0
      ]
    }
  ],
  "scene": 0,
  "nodes": [
    {
      "children": [
        10
      ],
      "matrix": [
        0.01,
        0,
        0,
        0,
        0,
        0.01,
        0,
        0,
        0,
        0,
        0.01,
        0,
        0,
        0,
        0,
        1
      ]
    },
    {
      "matrix": [
        2.220446049250396e-16,
        1.0000000000000377,
        0,
        0,
        -1.0000000000000377,
        2.220446049250396e-16,
        0,
        0,
        0,
        0,
        1,
        0,
        0.9057360462658153,
        19.178935210174956,
        26.330493551984553,
        1
      ],
      "name": "Rectangle 4",
      "mesh": 0
    },
    {
      "matrix": [
        2.220446049250332e-16,
        1.0000000000000089,
        0,
        0,
        -1.0000000000000089,
        2.220446049250332e-16,
        0,
        0,
        0,
        0,
        1,
        0,
        0.9057360462658152,
        117.7312378216649,
        26.330493551984553,
        1
      ],
      "name": "Rectangle 3",
      "mesh": 1
    },
    {
      "matrix": [
        1,
        0,
        0,
        0,
        0,
        1,
        0,
        0,
        0,
        0,
        1,
        0,
        0.9057360462658153,
        117.7312378216649,
        26.71604562271387,
        1
      ],
      "name": "Rectangle 2",
      "mesh": 2
    },
    {
      "matrix": [
        1,
        0,
        0,
        0,
        0,
        1.0000000000000004,
        0,
        0,
        0,
        0,
        1.0000000000000004,
        0,
        -0.9282662853028113,
        144.02007504725103,
        -0.019577306797145862,
        1
      ],
      "name": "Cylinder 3",
      "mesh": 3
    },
    {
      "matrix": [
        1,
        0,
        0,
        0,
        0,
        1.0000000000000004,
        0,
        0,
        0,
        0,
        1.0000000000000004,
        0,
        -1.1368683772161603e-13,
        116.4319329069781,
        -0.7160456227138567,
        1
      ],
      "name": "Cylinder 2",
      "mesh": 4
    },
    {
      "matrix": [
        1,
        0,
        0,
        0,
        0,
        1.0000000000000004,
        0,
        0,
        0,
        0,
        1.0000000000000004,
        0,
        -1.1368683772161603e-13,
        48.48164261170976,
        -0.7160456227138567,
        1
      ],
      "name": "Cylinder",
      "mesh": 5
    },
    {
      "name": "Battery",
      "children": [
        1,
        2,
        3,
        4,
        5,
        6
      ]
    },
    {
      "matrix": [
        0.9426541463674043,
        -2.6336971006846177e-8,
        0.33377111968584044,
        0,
        0.2044544318782378,
        0.7904250791298009,
        -0.5774310171509623,
        0,
        -0.2638210484811387,
        0.6125587272112342,
        0.7450974836192009,
        0,
        -141.07824486354315,
        669.7976397997302,
        763.5118076477655,
        1
      ],
      "camera": 0
    },
    {
      "matrix": [
        1,
        0,
        0,
        0,
        0,
        1,
        0,
        0,
        0,
        0,
        1,
        0,
        0,
        1,
        0,
        1
      ],
      "name": "Default Ambient Light"
    },
    {
      "name": "Scene 1",
      "children": [
        7,
        8,
        9
      ]
    }
  ],
  "bufferViews": [
    {
      "buffer": 0,
      "byteOffset": 0,
      "byteLength": 288,
      "target": 34962,
      "byteStride": 12
    },
    {
      "buffer": 0,
      "byteOffset": 288,
      "byteLength": 288,
      "target": 34962,
      "byteStride": 12
    },
    {
      "buffer": 0,
      "byteOffset": 576,
      "byteLength": 192,
      "target": 34962,
      "byteStride": 8
    },
    {
      "buffer": 0,
      "byteOffset": 768,
      "byteLength": 144,
      "target": 34963
    },
    {
      "buffer": 0,
      "byteOffset": 912,
      "byteLength": 288,
      "target": 34962,
      "byteStride": 12
    },
    {
      "buffer": 0,
      "byteOffset": 1200,
      "byteLength": 288,
      "target": 34962,
      "byteStride": 12
    },
    {
      "buffer": 0,
      "byteOffset": 1488,
      "byteLength": 192,
      "target": 34962,
      "byteStride": 8
    },
    {
      "buffer": 0,
      "byteOffset": 1680,
      "byteLength": 144,
      "target": 34963
    },
    {
      "buffer": 0,
      "byteOffset": 1824,
      "byteLength": 288,
      "target": 34962,
      "byteStride": 12
    },
    {
      "buffer": 0,
      "byteOffset": 2112,
      "byteLength": 288,
      "target": 34962,
      "byteStride": 12
    },
    {
      "buffer": 0,
      "byteOffset": 2400,
      "byteLength": 192,
      "target": 34962,
      "byteStride": 8
    },
    {
      "buffer": 0,
      "byteOffset": 2592,
      "byteLength": 144,
      "target": 34963
    },
    {
      "buffer": 0,
      "byteOffset": 2736,
      "byteLength": 1800,
      "target": 34962,
      "byteStride": 12
    },
    {
      "buffer": 0,
      "byteOffset": 4536,
      "byteLength": 1800,
      "target": 34962,
      "byteStride": 12
    },
    {
      "buffer": 0,
      "byteOffset": 6336,
      "byteLength": 1200,
      "target": 34962,
      "byteStride": 8
    },
    {
      "buffer": 0,
      "byteOffset": 7536,
      "byteLength": 1428,
      "target": 34963
    },
    {
      "buffer": 0,
      "byteOffset": 8964,
      "byteLength": 3192,
      "target": 34962,
      "byteStride": 12
    },
    {
      "buffer": 0,
      "byteOffset": 12156,
      "byteLength": 3192,
      "target": 34962,
      "byteStride": 12
    },
    {
      "buffer": 0,
      "byteOffset": 15348,
      "byteLength": 2128,
      "target": 34962,
      "byteStride": 8
    },
    {
      "buffer": 0,
      "byteOffset": 17476,
      "byteLength": 2700,
      "target": 34963
    },
    {
      "buffer": 0,
      "byteOffset": 20176,
      "byteLength": 3192,
      "target": 34962,
      "byteStride": 12
    },
    {
      "buffer": 0,
      "byteOffset": 23368,
      "byteLength": 3192,
      "target": 34962,
      "byteStride": 12
    },
    {
      "buffer": 0,
      "byteOffset": 26560,
      "byteLength": 2128,
      "target": 34962,
      "byteStride": 8
    },
    {
      "buffer": 0,
      "byteOffset": 28688,
      "byteLength": 2700,
      "target": 34963
    }
  ],
  "buffers": [
    {
      "byteLength": 31388,
      "uri": "data:application/octet-stream;base64,"
    }
  ],
  "accessors": [
    {
      "bufferView": 0,
      "componentType": 5126,
      "count": 24,
      "max": [
        2,
        7,
        4
      ],
      "min": [
        -2,
        -7,
        0
      ],
      "type": "VEC3"
    },
    {
      "bufferView": 1,
      "componentType": 5126,
      "count": 24,
      "max": [
        1,
        1,
        1
      ],
      "min": [
        -1,
        -1,
        -1
      ],
      "type": "VEC3"
    },
    {
      "bufferView": 2,
      "componentType": 5126,
      "count": 24,
      "max": [
        1,
        1
      ],
      "min": [
        0,
        0
      ],
      "type": "VEC2"
    },
    {
      "bufferView": 3,
      "componentType": 5125,
      "count": 36,
      "max": [
        23
      ],
      "min": [
        0
      ],
      "type": "SCALAR"
    },
    {
      "bufferView": 4,
      "componentType": 5126,
      "count": 24,
      "max": [
        2,
        7,
        4
      ],
      "min": [
        -2,
        -7,
        0
      ],
      "type": "VEC3"
    },
    {
      "bufferView": 5,
      "componentType": 5126,
      "count": 24,
      "max": [
        1,
        1,
        1
      ],
      "min": [
        -1,
        -1,
        -1
      ],
      "type": "VEC3"
    },
    {
      "bufferView": 6,
      "componentType": 5126,
      "count": 24,
      "max": [
        1,
        1
      ],
      "min": [
        0,
        0
      ],
      "type": "VEC2"
    },
    {
      "bufferView": 7,
      "componentType": 5125,
      "count": 36,
      "max": [
        23
      ],
      "min": [
        0
      ],
      "type": "SCALAR"
    },
    {
      "bufferView": 8,
      "componentType": 5126,
      "count": 24,
      "max": [
        2,
        7,
        4
      ],
      "min": [
        -2,
        -7,
        0
      ],
      "type": "VEC3"
    },
    {
      "bufferView": 9,
      "componentType": 5126,
      "count": 24,
      "max": [
        1,
        1,
        1
      ],
      "min": [
        -1,
        -1,
        -1
      ],
      "type": "VEC3"
    },
    {
      "bufferView": 10,
      "componentType": 5126,
      "count": 24,
      "max": [
        1,
        1
      ],
      "min": [
        0,
        0
      ],
      "type": "VEC2"
    },
    {
      "bufferView": 11,
      "componentType": 5125,
      "count": 36,
      "max": [
        23
      ],
      "min": [
        0
      ],
      "type": "SCALAR"
    },
    {
      "bufferView": 12,
      "componentType": 5126,
      "count": 150,
      "max": [
        14.623918533325195,
        8,
        15
      ],
      "min": [
        -14.623918533325195,
        -8,
        -15
      ],
      "type": "VEC3"
    },
    {
      "bufferView": 13,
      "componentType": 5126,
      "count": 150,
      "max": [
        0.9749279022216797,
        1,
        1
      ],
      "min": [
        -0.9749279022216797,
        -1,
        -1
      ],
      "type": "VEC3"
    },
    {
      "bufferView": 14,
      "componentType": 5126,
      "count": 150,
      "max": [
        1,
        1
      ],
      "min": [
        0,
        0
      ],
      "type": "VEC2"
    },
    {
      "bufferView": 15,
      "componentType": 5123,
      "count": 714,
      "max": [
        148
      ],
      "min": [
        0
      ],
      "type": "SCALAR"
    },
    {
      "bufferView": 16,
      "componentType": 5126,
      "count": 266,
      "max": [
        29.544233322143555,
        25,
        30
      ],
      "min": [
        -29.544233322143555,
        -25,
        -30
      ],
      "type": "VEC3"
    },
    {
      "bufferView": 17,
      "componentType": 5126,
      "count": 266,
      "max": [
        0.9848077297210693,
        1,
        1
      ],
      "min": [
        -0.9848077297210693,
        -1,
        -1
      ],
      "type": "VEC3"
    },
    {
      "bufferView": 18,
      "componentType": 5126,
      "count": 266,
      "max": [
        1,
        1
      ],
      "min": [
        0,
        0
      ],
      "type": "VEC2"
    },
    {
      "bufferView": 19,
      "componentType": 5123,
      "count": 1350,
      "max": [
        264
      ],
      "min": [
        0
      ],
      "type": "SCALAR"
    },
    {
      "bufferView": 20,
      "componentType": 5126,
      "count": 266,
      "max": [
        29.544233322143555,
        49,
        30
      ],
      "min": [
        -29.544233322143555,
        -49,
        -30
      ],
      "type": "VEC3"
    },
    {
      "bufferView": 21,
      "componentType": 5126,
      "count": 266,
      "max": [
        0.9848077297210693,
        1,
        1
      ],
      "min": [
        -0.9848077297210693,
        -1,
        -1
      ],
      "type": "VEC3"
    },
    {
      "bufferView": 22,
      "componentType": 5126,
      "count": 266,
      "max": [
        1,
        1
      ],
      "min": [
        0,
        0
      ],
      "type": "VEC2"
    },
    {
      "bufferView": 23,
      "componentType": 5123,
      "count": 1350,
      "max": [
        264
      ],
      "min": [
        0
      ],
      "type": "SCALAR"
    }
  ],
  "materials": [
    {
      "pbrMetallicRoughness": {
        "baseColorFactor": [
          0.4232676699760063,
          0.44803309041003264,
          0.5028864580233624,
          1
        ],
        "metallicFactor": 0,
        "roughnessFactor": 1
      },
      "doubleSided": false
    },
    {
      "pbrMetallicRoughness": {
        "baseColorFactor": [
          0.18447499449003016,
          0.24809607364553923,
          0.6514056374127931,
          1
        ],
        "metallicFactor": 0,
        "roughnessFactor": 0.997
      },
      "doubleSided": false
    }
  ],
  "meshes": [
    {
      "primitives": [
        {
          "mode": 4,
          "attributes": {
            "POSITION": 0,
            "NORMAL": 1,
            "TEXCOORD_0": 2
          },
          "extras": {
            "shape": {
              "points": [
                -2,
                7,
                -2,
                7,
                -2,
                7,
                0,
                2,
                7,
                2,
                7,
                2,
                7,
                0,
                2,
                -7,
                2,
                -7,
                2,
                -7,
                0,
                -2,
                -7,
                -2,
                -7,
                -2,
                -7,
                0
              ],
              "shapeHoles": [],
              "isClosed": true,
              "roundness": 0
            },
            "parameters": {
              "width": 4,
              "depth": 4,
              "cornerRadius": [
                0,
                0,
                0,
                0
              ],
              "cornerType": 1,
              "extrudeBevelSize": 0,
              "extrudeBevelSegments": 1,
              "extrudeDepth": 0,
              "height": 14,
              "surfaceMaxCount": 100,
              "type": "RectangleGeometry"
            },
            "ui": {
              "enabledIndieCorners": false
            },
            "type": "RectangleGeometry"
          },
          "indices": 3,
          "material": 0
        }
      ]
    },
    {
      "primitives": [
        {
          "mode": 4,
          "attributes": {
            "POSITION": 4,
            "NORMAL": 5,
            "TEXCOORD_0": 6
          },
          "extras": {
            "shape": {
              "points": [
                -2,
                7,
                -2,
                7,
                -2,
                7,
                0,
                2,
                7,
                2,
                7,
                2,
                7,
                0,
                2,
                -7,
                2,
                -7,
                2,
                -7,
                0,
                -2,
                -7,
                -2,
                -7,
                -2,
                -7,
                0
              ],
              "shapeHoles": [],
              "isClosed": true,
              "roundness": 0
            },
            "parameters": {
              "width": 4,
              "depth": 4,
              "cornerRadius": [
                0,
                0,
                0,
                0
              ],
              "cornerType": 1,
              "extrudeBevelSize": 0,
              "extrudeBevelSegments": 1,
              "extrudeDepth": 0,
              "height": 14,
              "surfaceMaxCount": 100,
              "type": "RectangleGeometry"
            },
            "ui": {
              "enabledIndieCorners": false
            },
            "type": "RectangleGeometry"
          },
          "indices": 7,
          "material": 1
        }
      ]
    },
    {
      "primitives": [
        {
          "mode": 4,
          "attributes": {
            "POSITION": 8,
            "NORMAL": 9,
            "TEXCOORD_0": 10
          },
          "extras": {
            "shape": {
              "points": [
                -2,
                7,
                -2,
                7,
                -2,
                7,
                0,
                2,
                7,
                2,
                7,
                2,
                7,
                0,
                2,
                -7,
                2,
                -7,
                2,
                -7,
                0,
                -2,
                -7,
                -2,
                -7,
                -2,
                -7,
                0
              ],
              "shapeHoles": [],
              "isClosed": true,
              "roundness": 0
            },
            "parameters": {
              "width": 4,
              "depth": 4,
              "cornerRadius": [
                0,
                0,
                0,
                0
              ],
              "cornerType": 1,
              "extrudeBevelSize": 0,
              "extrudeBevelSegments": 1,
              "extrudeDepth": 0,
              "height": 14,
              "surfaceMaxCount": 100,
              "type": "RectangleGeometry"
            },
            "ui": {
              "enabledIndieCorners": false
            },
            "type": "RectangleGeometry"
          },
          "indices": 11,
          "material": 1
        }
      ]
    },
    {
      "primitives": [
        {
          "mode": 4,
          "attributes": {
            "POSITION": 12,
            "NORMAL": 13,
            "TEXCOORD_0": 14
          },
          "extras": {
            "parameters": {
              "width": 30,
              "radialSegments": 14,
              "heightSegments": 1,
              "openEnded": false,
              "thetaStart": 0,
              "thetaLength": 360,
              "cornerRadius": 1,
              "cornerSegments": 1,
              "hollow": 0,
              "depth": 30,
              "height": 16,
              "radiusTop": 15,
              "radiusBottom": 15,
              "type": "CylinderGeometry"
            },
            "type": "CylinderGeometry"
          },
          "indices": 15,
          "material": 1
        }
      ]
    },
    {
      "primitives": [
        {
          "mode": 4,
          "attributes": {
            "POSITION": 16,
            "NORMAL": 17,
            "TEXCOORD_0": 18
          },
          "extras": {
            "parameters": {
              "width": 60,
              "radialSegments": 18,
              "heightSegments": 1,
              "openEnded": false,
              "thetaStart": 0,
              "thetaLength": 360,
              "cornerRadius": 4,
              "cornerSegments": 3,
              "hollow": 0,
              "depth": 60,
              "height": 50,
              "radiusTop": 30,
              "radiusBottom": 30,
              "type": "CylinderGeometry"
            },
            "type": "CylinderGeometry"
          },
          "indices": 19,
          "material": 0
        }
      ]
    },
    {
      "primitives": [
        {
          "mode": 4,
          "attributes": {
            "POSITION": 20,
            "NORMAL": 21,
            "TEXCOORD_0": 22
          },
          "extras": {
            "parameters": {
              "width": 60,
              "radialSegments": 18,
              "heightSegments": 1,
              "openEnded": false,
              "thetaStart": 0,
              "thetaLength": 360,
              "cornerRadius": 4,
              "cornerSegments": 3,
              "hollow": 0,
              "depth": 60,
              "height": 98,
              "radiusTop": 30,
              "radiusBottom": 30,
              "type": "CylinderGeometry"
            },
            "type": "CylinderGeometry"
          },
          "indices": 23,
          "material": 1
        }
      ]
    }
  ],
  "cameras": [
    {
      "type": "orthographic",
      "orthographic": {
        "xmag": 9.775,
        "ymag": 5.79,
        "zfar": 100000,
        "znear": 0
      }
    }
  ]
}