{
	"asset":{
		"generator":"Khronos glTF Blender I/O v3.6.28",
		"version":"2.0"
	},
	"extensionsUsed":[
		"KHR_materials_specular",
		"KHR_materials_ior"
	],
	"scene":0,
	"scenes":[
		{
			"name":"Scene",
			"nodes":[
				14
			]
		}
	],
	"nodes":[
		{
			"mesh":0,
			"name":"Boolean 4",
			"translation":[
				-3.083815574645996,
				20.335548400878906,
				0
			]
		},
		{
			"mesh":1,
			"name":"Boolean 7",
			"translation":[
				33.79872131347656,
				46.332130432128906,
				0
			]
		},
		{
			"mesh":2,
			"name":"Boolean 9",
			"translation":[
				35.02114486694336,
				46.502166748046875,
				0
			]
		},
		{
			"mesh":3,
			"name":"Cylinder",
			"translation":[
				-3.083815574645996,
				-53.2813606262207,
				0
			]
		},
		{
			"mesh":4,
			"name":"Cylinder 3",
			"translation":[
				-3.083815574645996,
				-13.274219512939453,
				0
			]
		},
		{
			"mesh":5,
			"name":"Boolean 9.003",
			"translation":[
				0,
				-7.62939453125e-06,
				0
			]
		},
		{
			"children":[
				5
			],
			"name":"Group 2",
			"rotation":[
				1,
				0,
				0,
				3.347676039618458e-17
			],
			"translation":[
				-3.083815574645996,
				-3.7841529846191406,
				0
			]
		},
		{
			"mesh":6,
			"name":"Boolean 9.001"
		},
		{
			"children":[
				7
			],
			"name":"Group 3",
			"rotation":[
				1,
				0,
				0,
				3.347676039618458e-17
			],
			"translation":[
				-3.083815574645996,
				57.74591827392578,
				0
			]
		},
		{
			"mesh":7,
			"name":"Cylinder 4",
			"translation":[
				0,
				-1.4999923706054688,
				0
			]
		},
		{
			"mesh":8,
			"name":"Boolean 9.002",
			"translation":[
				0,
				-7.62939453125e-06,
				0
			]
		},
		{
			"children":[
				10
			],
			"name":"Group",
			"rotation":[
				1,
				0,
				0,
				3.347676039618458e-17
			],
			"translation":[
				0,
				1.5,
				0
			]
		},
		{
			"children":[
				9,
				11
			],
			"name":"Group 4",
			"translation":[
				-3.083815574645996,
				17.99915313720703,
				0
			]
		},
		{
			"mesh":9,
			"name":"\ud558\uccb4",
			"translation":[
				-3.083815574645996,
				-34.28136444091797,
				0
			]
		},
		{
			"children":[
				0,
				1,
				2,
				3,
				4,
				6,
				8,
				12,
				13
			],
			"name":"Group 5",
			"scale":[
				0.009999999776482582,
				0.009999999776482582,
				0.009999999776482582
			],
			"translation":[
				0.04284600168466568,
				0.5886401534080505,
				0.013978004455566406
			]
		}
	],
	"materials":[
		{
			"name":"Material_3",
			"pbrMetallicRoughness":{
				"baseColorFactor":[
					0.8286916613578796,
					0.8286916613578796,
					0.8286916613578796,
					1
				],
				"metallicFactor":0,
				"roughnessFactor":0.9950000047683716
			}
		},
		{
			"name":"Material_2",
			"pbrMetallicRoughness":{
				"baseColorFactor":[
					0.8286916613578796,
					0.8286916613578796,
					0.8286916613578796,
					1
				],
				"metallicFactor":0,
				"roughnessFactor":0.9950000047683716
			}
		},
		{
			"doubleSided":true,
			"extensions":{
				"KHR_materials_specular":{
					"specularColorFactor":[
						0.6814245904784765,
						0.6814245904784765,
						0.6814245904784765
					]
				},
				"KHR_materials_ior":{
					"ior":1.4500000476837158
				}
			},
			"name":"\ub9e4\ud14c\ub9ac\uc5bc",
			"pbrMetallicRoughness":{
				"baseColorTexture":{
					"index":0
				},
				"metallicFactor":0,
				"roughnessFactor":0.6551724076271057
			}
		},
		{
			"name":"Material_9",
			"pbrMetallicRoughness":{
				"baseColorFactor":[
					0.08865558356046677,
					0.08865558356046677,
					0.10461648553609848,
					1
				],
				"metallicFactor":0,
				"roughnessFactor":0.9056426882743835
			}
		},
		{
			"name":"Material_8",
			"pbrMetallicRoughness":{
				"baseColorFactor":[
					0.08865558356046677,
					0.08865558356046677,
					0.10461648553609848,
					1
				],
				"metallicFactor":0,
				"roughnessFactor":0.9056426882743835
			}
		},
		{
			"name":"Material_7",
			"pbrMetallicRoughness":{
				"baseColorFactor":[
					0.02796420082449913,
					0.02796420082449913,
					0.02796420082449913,
					1
				],
				"metallicFactor":0,
				"roughnessFactor":0.9671756029129028
			}
		},
		{
			"name":"Material_1",
			"pbrMetallicRoughness":{
				"baseColorFactor":[
					0.02796420082449913,
					0.02796420082449913,
					0.02796420082449913,
					1
				],
				"metallicFactor":0,
				"roughnessFactor":0.9671756029129028
			}
		},
		{
			"name":"Material_6",
			"pbrMetallicRoughness":{
				"baseColorFactor":[
					0.08865558356046677,
					0.08865558356046677,
					0.10461648553609848,
					1
				],
				"metallicFactor":0,
				"roughnessFactor":0.9056426882743835
			}
		},
		{
			"name":"Material_5",
			"pbrMetallicRoughness":{
				"baseColorFactor":[
					0.02796420082449913,
					0.02796420082449913,
					0.02796420082449913,
					1
				],
				"metallicFactor":0,
				"roughnessFactor":0.9671756029129028
			}
		},
		{
			"alphaCutoff":0.5,
			"alphaMode":"MASK",
			"doubleSided":true,
			"name":"Material.001",
			"pbrMetallicRoughness":{
				"baseColorFactor":[
					0.800000011920929,
					0.800000011920929,
					0.800000011920929,
					1
				],
				"metallicFactor":0,
				"roughnessFactor":0.5
			}
		}
	],
	"meshes":[
		{
			"name":"Mesh_3",
			"primitives":[
				{
					"attributes":{
						"POSITION":0,
						"NORMAL":1
					},
					"indices":2,
					"material":0
				}
			]
		},
		{
			"name":"Mesh_2",
			"primitives":[
				{
					"attributes":{
						"POSITION":3,
						"NORMAL":4
					},
					"indices":5,
					"material":1
				}
			]
		},
		{
			"name":"Mesh_0",
			"primitives":[
				{
					"attributes":{
						"POSITION":6,
						"NORMAL":7,
						"TEXCOORD_0":8
					},
					"indices":9,
					"material":2
				}
			]
		},
		{
			"name":"Mesh_9",
			"primitives":[
				{
					"attributes":{
						"POSITION":10,
						"NORMAL":11,
						"TEXCOORD_0":12
					},
					"indices":13,
					"material":3
				}
			]
		},
		{
			"name":"Mesh_8",
			"primitives":[
				{
					"attributes":{
						"POSITION":14,
						"NORMAL":15,
						"TEXCOORD_0":16
					},
					"indices":13,
					"material":4
				}
			]
		},
		{
			"name":"Mesh_7",
			"primitives":[
				{
					"attributes":{
						"POSITION":17,
						"NORMAL":18
					},
					"indices":19,
					"material":5
				}
			]
		},
		{
			"name":"Mesh_1",
			"primitives":[
				{
					"attributes":{
						"POSITION":20,
						"NORMAL":21
					},
					"indices":19,
					"material":6
				}
			]
		},
		{
			"name":"Mesh_6",
			"primitives":[
				{
					"attributes":{
						"POSITION":22,
						"NORMAL":23,
						"TEXCOORD_0":24
					},
					"indices":13,
					"material":7
				}
			]
		},
		{
			"name":"Mesh_5",
			"primitives":[
				{
					"attributes":{
						"POSITION":25,
						"NORMAL":26
					},
					"indices":19,
					"material":8
				}
			]
		},
		{
			"name":"Mesh_4",
			"primitives":[
				{
					"attributes":{
						"POSITION":27,
						"NORMAL":28,
						"TEXCOORD_0":29
					},
					"indices":30,
					"material":9
				}
			]
		}
	],
	"textures":[
		{
			"sampler":0,
			"source":0
		}
	],
	"images":[
		{
			"bufferView":10,
			"mimeType":"image/png",
			"name":"image"
		}
	],
	"accessors":[
		{
			"bufferView":0,
			"componentType":5126,
			"count":5934,
			"max":[
				38,
				35.93266296386719,
				38
			],
			"min":[
				-38,
				-41.61690902709961,
				-38
			],
			"type":"VEC3"
		},
		{
			"bufferView":1,
			"componentType":5126,
			"count":5934,
			"type":"VEC3"
		},
		{
			"bufferView":2,
			"componentType":5123,
			"count":5934,
			"type":"SCALAR"
		},
		{
			"bufferView":3,
			"componentType":5126,
			"count":1854,
			"max":[
				7.285096168518066,
				9.936080932617188,
				14.558883666992188
			],
			"min":[
				-7.241412162780762,
				-9.936080932617188,
				-14.558883666992188
			],
			"type":"VEC3"
		},
		{
			"bufferView":4,
			"componentType":5126,
			"count":1854,
			"type":"VEC3"
		},
		{
			"bufferView":5,
			"componentType":5123,
			"count":1854,
			"type":"SCALAR"
		},
		{
			"bufferView":6,
			"componentType":5126,
			"count":24,
			"max":[
				5.429904460906982,
				6.855937480926514,
				12.431150436401367
			],
			"min":[
				-0.19511078298091888,
				-7.91773796081543,
				-12.431150436401367
			],
			"type":"VEC3"
		},
		{
			"bufferView":7,
			"componentType":5126,
			"count":24,
			"type":"VEC3"
		},
		{
			"bufferView":8,
			"componentType":5126,
			"count":24,
			"type":"VEC2"
		},
		{
			"bufferView":9,
			"componentType":5123,
			"count":36,
			"type":"SCALAR"
		},
		{
			"bufferView":11,
			"componentType":5126,
			"count":388,
			"max":[
				38,
				6,
				38
			],
			"min":[
				-38,
				-6,
				-38
			],
			"type":"VEC3"
		},
		{
			"bufferView":12,
			"componentType":5126,
			"count":388,
			"type":"VEC3"
		},
		{
			"bufferView":13,
			"componentType":5126,
			"count":388,
			"type":"VEC2"
		},
		{
			"bufferView":14,
			"componentType":5123,
			"count":768,
			"type":"SCALAR"
		},
		{
			"bufferView":15,
			"componentType":5126,
			"count":388,
			"max":[
				34.321998596191406,
				8.007142066955566,
				34.321998596191406
			],
			"min":[
				-34.321998596191406,
				-8.007142066955566,
				-34.321998596191406
			],
			"type":"VEC3"
		},
		{
			"bufferView":16,
			"componentType":5126,
			"count":388,
			"type":"VEC3"
		},
		{
			"bufferView":17,
			"componentType":5126,
			"count":388,
			"type":"VEC2"
		},
		{
			"bufferView":18,
			"componentType":5126,
			"count":2064,
			"max":[
				34.321998596191406,
				1.5354547500610352,
				34.321998596191406
			],
			"min":[
				-34.321998596191406,
				-1.5354537963867188,
				-34.321998596191406
			],
			"type":"VEC3"
		},
		{
			"bufferView":19,
			"componentType":5126,
			"count":2064,
			"type":"VEC3"
		},
		{
			"bufferView":20,
			"componentType":5123,
			"count":2064,
			"type":"SCALAR"
		},
		{
			"bufferView":21,
			"componentType":5126,
			"count":2064,
			"max":[
				34.321998596191406,
				1.5354547500610352,
				34.321998596191406
			],
			"min":[
				-34.321998596191406,
				-1.5354537963867188,
				-34.321998596191406
			],
			"type":"VEC3"
		},
		{
			"bufferView":22,
			"componentType":5126,
			"count":2064,
			"type":"VEC3"
		},
		{
			"bufferView":23,
			"componentType":5126,
			"count":388,
			"max":[
				34.321998596191406,
				1.5354547500610352,
				34.321998596191406
			],
			"min":[
				-34.321998596191406,
				-1.5354547500610352,
				-34.321998596191406
			],
			"type":"VEC3"
		},
		{
			"bufferView":24,
			"componentType":5126,
			"count":388,
			"type":"VEC3"
		},
		{
			"bufferView":25,
			"componentType":5126,
			"count":388,
			"type":"VEC2"
		},
		{
			"bufferView":26,
			"componentType":5126,
			"count":2064,
			"max":[
				34.321998596191406,
				1.5354547500610352,
				34.321998596191406
			],
			"min":[
				-34.321998596191406,
				-1.5354537963867188,
				-34.321998596191406
			],
			"type":"VEC3"
		},
		{
			"bufferView":27,
			"componentType":5126,
			"count":2064,
			"type":"VEC3"
		},
		{
			"bufferView":28,
			"componentType":5126,
			"count":392,
			"max":[
				38,
				13,
				38
			],
			"min":[
				-38,
				-13,
				-38
			],
			"type":"VEC3"
		},
		{
			"bufferView":29,
			"componentType":5126,
			"count":392,
			"type":"VEC3"
		},
		{
			"bufferView":30,
			"componentType":5126,
			"count":392,
			"type":"VEC2"
		},
		{
			"bufferView":31,
			"componentType":5123,
			"count":768,
			"type":"SCALAR"
		}
	],
	"bufferViews":[
		{
			"buffer":0,
			"byteLength":71208,
			"byteOffset":0,
			"target":34962
		},
		{
			"buffer":0,
			"byteLength":71208,
			"byteOffset":71208,
			"target":34962
		},
		{
			"buffer":0,
			"byteLength":11868,
			"byteOffset":142416,
			"target":34963
		},
		{
			"buffer":0,
			"byteLength":22248,
			"byteOffset":154284,
			"target":34962
		},
		{
			"buffer":0,
			"byteLength":22248,
			"byteOffset":176532,
			"target":34962
		},
		{
			"buffer":0,
			"byteLength":3708,
			"byteOffset":198780,
			"target":34963
		},
		{
			"buffer":0,
			"byteLength":288,
			"byteOffset":202488,
			"target":34962
		},
		{
			"buffer":0,
			"byteLength":288,
			"byteOffset":202776,
			"target":34962
		},
		{
			"buffer":0,
			"byteLength":192,
			"byteOffset":203064,
			"target":34962
		},
		{
			"buffer":0,
			"byteLength":72,
			"byteOffset":203256,
			"target":34963
		},
		{
			"buffer":0,
			"byteLength":46333,
			"byteOffset":203328
		},
		{
			"buffer":0,
			"byteLength":4656,
			"byteOffset":249664,
			"target":34962
		},
		{
			"buffer":0,
			"byteLength":4656,
			"byteOffset":254320,
			"target":34962
		},
		{
			"buffer":0,
			"byteLength":3104,
			"byteOffset":258976,
			"target":34962
		},
		{
			"buffer":0,
			"byteLength":1536,
			"byteOffset":262080,
			"target":34963
		},
		{
			"buffer":0,
			"byteLength":4656,
			"byteOffset":263616,
			"target":34962
		},
		{
			"buffer":0,
			"byteLength":4656,
			"byteOffset":268272,
			"target":34962
		},
		{
			"buffer":0,
			"byteLength":3104,
			"byteOffset":272928,
			"target":34962
		},
		{
			"buffer":0,
			"byteLength":24768,
			"byteOffset":276032,
			"target":34962
		},
		{
			"buffer":0,
			"byteLength":24768,
			"byteOffset":300800,
			"target":34962
		},
		{
			"buffer":0,
			"byteLength":4128,
			"byteOffset":325568,
			"target":34963
		},
		{
			"buffer":0,
			"byteLength":24768,
			"byteOffset":329696,
			"target":34962
		},
		{
			"buffer":0,
			"byteLength":24768,
			"byteOffset":354464,
			"target":34962
		},
		{
			"buffer":0,
			"byteLength":4656,
			"byteOffset":379232,
			"target":34962
		},
		{
			"buffer":0,
			"byteLength":4656,
			"byteOffset":383888,
			"target":34962
		},
		{
			"buffer":0,
			"byteLength":3104,
			"byteOffset":388544,
			"target":34962
		},
		{
			"buffer":0,
			"byteLength":24768,
			"byteOffset":391648,
			"target":34962
		},
		{
			"buffer":0,
			"byteLength":24768,
			"byteOffset":416416,
			"target":34962
		},
		{
			"buffer":0,
			"byteLength":4704,
			"byteOffset":441184,
			"target":34962
		},
		{
			"buffer":0,
			"byteLength":4704,
			"byteOffset":445888,
			"target":34962
		},
		{
			"buffer":0,
			"byteLength":3136,
			"byteOffset":450592,
			"target":34962
		},
		{
			"buffer":0,
			"byteLength":1536,
			"byteOffset":453728,
			"target":34963
		}
	],
	"samplers":[
		{
			"magFilter":9729,
			"minFilter":9987
		}
	],
	"buffers":[
		{
			"byteLength":455264,
			"uri":"data:application/octet-stream;base64,"
		}
	]
}
